<?xml version="1.0" standalone="no"?>
<!DOCTYPE svg PUBLIC "-//W3C//DTD SVG 20010904//EN"
 "http://www.w3.org/TR/2001/REC-SVG-20010904/DTD/svg10.dtd">
<svg version="1.0" xmlns="http://www.w3.org/2000/svg"
 width="758.000000pt" height="505.000000pt" viewBox="0 0 758.000000 505.000000"
 preserveAspectRatio="xMidYMid meet">
<metadata>
Created by potrace 1.16, written by Peter Selinger 2001-2019
</metadata>
<g transform="translate(0.000000,505.000000) scale(0.100000,-0.100000)"
fill="#000000" stroke="none">
<path d="M1095 5040 c-20 -3 -31 -12 -33 -25 -5 -27 -11 -32 -21 -17 -13 21
-43 -53 -39 -96 3 -33 6 -37 29 -34 14 2 37 -6 52 -18 19 -15 35 -20 55 -16
15 4 51 -1 82 -11 l55 -18 3 -46 c2 -37 -2 -50 -21 -70 -13 -13 -29 -34 -35
-46 -13 -23 -52 -22 -52 2 0 17 27 27 34 12 2 -7 5 -4 5 6 1 11 -6 17 -19 17
-11 0 -20 4 -20 8 0 5 -13 23 -29 41 l-29 32 -29 -27 -30 -27 18 -37 c14 -29
17 -48 10 -87 -4 -27 -6 -54 -3 -61 4 -14 39 -16 44 -3 2 5 18 18 37 29 31 19
36 19 77 5 35 -12 47 -23 65 -59 18 -39 20 -54 14 -112 -4 -37 -13 -85 -21
-108 -17 -51 -20 -121 -5 -157 15 -38 13 -133 -3 -179 -14 -38 -11 -51 14 -60
13 -5 16 -30 18 -134 1 -90 6 -132 16 -143 7 -9 16 -28 20 -43 3 -16 13 -28
21 -28 17 0 20 -21 6 -35 -13 -13 13 -125 31 -136 16 -10 54 -11 97 -3 l31 6
-25 30 c-29 34 -29 35 -15 75 10 27 8 33 -20 63 -39 42 -64 127 -57 192 3 26
2 48 -2 48 -14 0 -42 67 -35 83 7 20 38 27 72 18 50 -14 112 18 64 33 -32 11
-43 46 -40 130 3 73 5 81 30 99 33 25 98 26 518 8 146 -6 275 -9 288 -6 22 5
23 7 17 111 -2 58 -8 111 -12 117 -12 19 -13 159 -2 195 18 54 99 81 144 46
28 -21 35 -162 10 -220 -17 -38 -20 -63 -27 -189 l-3 -60 42 -9 c23 -5 53 -6
68 -2 l27 7 -5 117 c-3 64 -7 155 -10 201 -4 49 -2 92 4 103 9 16 4 25 -28 53
-33 29 -38 38 -38 76 0 37 -4 46 -25 56 -14 6 -38 25 -53 41 -25 26 -29 39
-33 102 -4 68 -2 73 24 98 15 15 38 35 52 44 l25 17 -45 2 c-97 5 -1327 4
-1355 -1z m1195 -50 c24 -24 25 -47 3 -72 -14 -16 -15 -23 -5 -39 7 -11 10
-24 7 -29 -3 -5 6 -31 20 -57 14 -26 25 -62 25 -79 0 -42 -38 -81 -86 -89 -22
-4 -57 -12 -79 -17 -36 -9 -188 -25 -274 -29 -45 -3 -98 52 -107 111 -7 45
-10 46 -76 26 -69 -21 -118 -5 -118 39 0 13 11 32 25 43 27 21 125 47 215 58
30 3 57 8 59 10 5 5 -81 7 -201 4 -77 -1 -88 0 -97 19 -15 27 -14 56 2 70 8 6
130 19 278 29 363 26 384 27 409 2z m-1040 -23 c31 -15 37 -52 14 -78 -25 -27
-116 -27 -144 1 -24 24 -26 53 -4 74 19 19 98 21 134 3z m723 -421 c25 -23 27
-30 23 -88 -6 -99 -34 -139 -84 -123 -29 8 -42 49 -42 124 0 83 10 98 71 110
3 0 18 -10 32 -23z m-181 -24 c66 -39 63 -158 -7 -239 -30 -35 -32 -36 -68
-24 -20 7 -47 12 -59 11 -40 -4 -47 -1 -61 28 -37 71 -28 184 17 221 38 32
126 33 178 3z"/>
<path d="M1975 4870 c-16 -4 -22 -8 -13 -9 9 0 21 -15 28 -35 16 -49 24 -50
142 -24 52 11 79 32 53 41 -8 4 -12 13 -9 21 4 11 -10 14 -83 13 -48 0 -101
-3 -118 -7z"/>
<path d="M4625 5044 c-5 -2 -10 -34 -10 -70 0 -36 -3 -98 -7 -137 -5 -40 -10
-301 -12 -582 -3 -280 -9 -593 -14 -695 -6 -124 -6 -189 1 -198 7 -9 29 -11
81 -6 39 4 104 7 145 8 48 1 76 5 78 13 6 18 -57 32 -86 19 -20 -9 -27 -7 -45
16 -11 14 -30 28 -42 32 -59 18 -84 90 -46 135 16 20 27 21 207 24 105 2 196
6 203 11 22 13 14 111 -14 179 -26 60 -27 67 -25 252 2 196 -6 335 -19 335 -9
0 -20 -72 -26 -185 -3 -49 -10 -102 -15 -117 -11 -28 -4 -68 12 -68 11 0 3
-71 -13 -112 -7 -20 -15 -25 -36 -23 -14 1 -31 10 -37 19 -15 20 -18 113 -5
121 7 4 7 30 3 68 -9 71 -5 297 6 312 3 6 6 30 6 55 -1 50 14 69 57 70 18 0
29 -6 33 -20 6 -17 8 -18 21 -6 8 8 14 26 14 39 l0 24 -189 8 c-184 7 -190 8
-213 32 -18 20 -23 38 -26 98 -4 69 -2 75 23 101 l27 27 485 -7 c475 -7 526
-5 440 23 -43 14 -230 41 -282 41 -23 0 -65 7 -94 16 -47 14 -52 18 -49 42 5
47 47 61 219 73 255 18 278 26 79 29 -558 7 -826 8 -835 4z"/>
<path d="M7243 5042 c-40 -1 -73 -7 -73 -12 0 -4 17 -14 37 -21 20 -6 48 -23
61 -36 l24 -24 -23 -27 c-13 -15 -47 -52 -75 -82 -28 -30 -54 -63 -57 -72 -7
-20 20 -42 64 -52 14 -3 38 -15 53 -27 l28 -22 -6 -361 c-11 -623 -12 -652
-37 -692 -29 -47 -47 -64 -68 -64 -20 0 -106 -75 -107 -94 -1 -20 17 -47 27
-40 6 3 21 -4 35 -17 48 -45 114 -59 286 -59 l158 0 0 853 0 852 -128 0 c-70
0 -160 -1 -199 -3z"/>
<path d="M2825 5028 c17 -5 138 -11 270 -12 132 -2 375 -7 540 -11 298 -8 362
-3 380 26 4 5 -233 9 -607 8 -416 0 -603 -4 -583 -11z"/>
<path d="M4418 5013 c-11 -25 -12 -69 -7 -228 1 -27 -2 -102 -6 -166 -8 -125
-2 -189 19 -189 10 0 14 22 15 88 0 48 4 182 7 298 5 153 4 213 -5 218 -6 4
-16 -4 -23 -21z"/>
<path d="M5680 5023 c31 -14 93 -16 530 -15 272 1 507 4 523 8 89 19 -19 24
-530 24 -522 -1 -556 -2 -523 -17z"/>
<path d="M787 4975 c-14 -20 -17 -41 -15 -107 2 -46 -1 -93 -5 -104 -6 -18 -3
-24 25 -33 19 -7 35 -8 41 -2 13 13 17 194 5 235 -13 42 -26 45 -51 11z"/>
<path d="M4005 4840 c-3 -5 -4 -14 -1 -19 9 -14 -33 -60 -70 -76 -32 -13 -34
-17 -34 -62 0 -36 -6 -56 -24 -78 -18 -23 -22 -34 -14 -48 5 -10 8 -30 6 -45
-3 -26 -6 -27 -58 -27 -62 0 -72 14 -47 64 13 26 13 30 0 35 -21 9 -265 6
-286 -3 -18 -7 -18 -8 -1 -21 9 -8 22 -28 29 -43 l12 -28 30 25 c53 45 133 31
133 -23 0 -13 -63 -33 -121 -37 -28 -1 -56 -10 -65 -19 -9 -9 -37 -26 -63 -40
l-47 -23 -12 28 c-19 43 -41 46 -71 10 -31 -37 -54 -33 -70 12 -16 47 -13 82
10 112 23 29 50 34 69 11 17 -20 22 -19 54 9 l28 23 -36 7 c-20 4 -44 2 -55
-3 -10 -6 -20 -8 -23 -6 -9 9 -353 15 -366 7 -10 -7 -13 -72 -13 -284 -1 -192
-4 -282 -13 -299 -17 -35 -49 -36 -71 -2 -15 23 -19 54 -22 193 -8 332 -10
377 -17 388 -8 14 -84 16 -104 3 -10 -6 -10 -10 3 -21 18 -15 19 -82 5 -287
-10 -134 -9 -143 10 -175 22 -37 27 -122 10 -196 -10 -42 -9 -44 25 -76 19
-18 35 -41 35 -49 0 -19 36 -41 51 -32 14 10 55 -2 73 -21 12 -12 16 -38 16
-114 0 -88 -2 -102 -22 -124 l-23 -25 -190 9 c-208 11 -208 11 -218 -47 -11
-58 -11 -58 430 -62 l171 -1 -5 -82 c-3 -46 -10 -89 -16 -96 -8 -10 -26 -12
-66 -7 -31 3 -153 8 -271 10 -574 11 -693 17 -719 34 -19 12 -51 16 -131 17
-58 0 -141 5 -185 12 -44 6 -115 14 -157 17 -85 6 -85 6 -79 -60 2 -26 36 -54
58 -49 10 3 26 -1 37 -9 38 -28 -11 -90 -54 -67 -25 13 -40 5 -40 -21 0 -23
-54 -59 -88 -59 -13 0 -30 -7 -38 -15 -9 -8 -32 -15 -53 -15 -21 0 -40 -3 -44
-6 -3 -3 1 -24 9 -47 11 -31 12 -48 4 -73 -8 -24 -8 -39 1 -55 14 -28 7 -88
-16 -123 -21 -32 -62 -35 -96 -7 -22 18 -24 28 -27 128 -3 83 0 119 12 148 9
20 16 52 16 70 0 35 28 55 79 55 31 0 41 15 41 58 0 26 -20 70 -20 45 0 -15
-55 -9 -76 8 -8 7 -13 18 -10 25 9 24 -14 26 -32 4 -10 -12 -30 -23 -45 -23
-29 -2 -31 -7 -27 -79 1 -23 -5 -44 -14 -54 -20 -19 -18 24 -17 -514 0 -297 5
-472 12 -505 10 -44 8 -63 -11 -138 -35 -136 -17 -244 45 -267 19 -7 65 6 65
19 0 3 42 3 92 0 68 -4 106 -12 141 -28 51 -25 63 -25 187 2 61 14 468 24 708
19 94 -2 93 -1 71 -102 l-11 -50 -46 -1 c-26 0 -67 -4 -92 -7 l-44 -7 29 -14
c17 -7 55 -16 85 -20 l55 -6 9 -48 c6 -34 5 -57 -4 -75 -11 -26 -12 -26 -26
-8 -12 17 -22 18 -100 12 -48 -4 -104 -14 -125 -23 -29 -11 -46 -12 -71 -5
-18 6 -55 13 -81 16 -125 15 -150 82 -57 151 l32 24 -38 10 c-22 5 -86 15
-144 21 -58 6 -142 22 -188 36 l-83 25 -32 -20 c-18 -11 -47 -27 -65 -35 -35
-17 -39 -30 -18 -71 22 -43 30 -123 14 -142 -9 -11 -14 -51 -16 -122 -1 -58
-6 -237 -12 -398 -7 -206 -6 -312 1 -360 16 -100 22 -314 10 -326 -6 -6 -11
-24 -11 -39 0 -15 -3 -28 -8 -28 -9 0 -52 136 -52 165 0 30 -11 65 -20 65 -5
0 -11 -13 -15 -29 -4 -20 -11 -28 -21 -24 -9 3 -14 -1 -14 -13 0 -15 -2 -16
-9 -6 -6 10 -10 7 -15 -12 -6 -23 -10 -25 -49 -22 -36 3 -45 0 -63 -23 -11
-14 -24 -45 -28 -68 l-6 -43 97 -1 c605 -7 1753 -6 1758 0 2 5 7 123 10 262 2
140 9 288 14 329 6 41 10 115 11 163 1 216 68 637 130 817 47 138 80 220 120
305 26 55 55 116 64 135 32 69 65 115 93 130 16 9 39 37 53 67 14 28 35 56 47
62 19 9 18 3 -15 -61 -20 -39 -60 -96 -88 -127 -54 -60 -102 -137 -91 -147 6
-7 26 11 120 102 26 26 47 40 47 33 0 -29 -68 -156 -110 -204 -58 -66 -77
-113 -90 -218 -12 -99 -18 -134 -54 -299 -46 -211 -60 -339 -112 -1008 -3 -41
-12 -133 -19 -205 -7 -72 -11 -134 -8 -138 3 -5 608 -7 1345 -5 l1341 3 18 65
c35 122 68 295 78 405 25 258 42 561 35 640 -4 45 -3 126 1 179 l7 97 90 -3
c84 -3 92 -5 110 -29 13 -17 19 -42 19 -75 1 -248 -11 -1189 -16 -1226 -5 -45
-5 -47 24 -53 46 -10 103 4 97 24 -16 53 -24 214 -25 491 -1 173 -6 422 -12
552 -8 207 -8 242 6 268 16 32 64 47 109 36 20 -5 30 0 50 27 29 37 32 52 14
63 -6 4 -114 6 -240 5 l-228 -2 0 70 0 71 95 0 c76 0 103 4 132 20 47 25 55
25 71 0 11 -18 23 -20 111 -20 115 0 126 7 109 62 -10 33 -8 41 16 82 23 40
26 51 17 79 -25 77 -44 244 -48 411 -2 99 -7 186 -12 194 -6 10 -12 7 -27 -15
-15 -23 -19 -50 -22 -158 -4 -199 -18 -359 -33 -382 -22 -36 -52 -44 -93 -25
-47 22 -58 62 -56 211 0 64 -4 166 -10 226 -5 61 -11 201 -13 312 l-2 201 -27
26 c-33 30 -39 82 -10 94 9 4 27 13 38 21 l22 15 -20 26 c-11 15 -22 45 -25
66 -4 33 -1 45 22 72 l26 31 -32 20 c-36 22 -69 22 -336 0 -73 -6 -149 -8
-168 -5 -40 8 -88 -11 -64 -25 17 -9 376 -32 388 -25 4 3 22 -4 40 -15 32 -20
33 -22 27 -69 -5 -36 -3 -52 9 -63 20 -21 19 -69 -3 -98 -16 -21 -18 -37 -12
-124 10 -169 7 -308 -7 -312 -7 -3 -13 2 -13 10 0 9 -6 17 -12 20 -10 3 -10 9
1 30 10 20 12 47 7 109 -6 77 -8 185 -3 233 1 11 -4 20 -13 20 -8 0 -18 16
-23 38 -7 29 -5 43 8 63 9 14 15 27 13 29 -19 16 -56 25 -102 25 l-56 0 0 -50
c0 -48 1 -49 35 -56 56 -10 87 -80 60 -134 -10 -19 -12 -82 -8 -270 3 -135 5
-276 4 -315 -1 -60 11 -165 25 -214 10 -31 25 8 24 60 -7 272 2 339 45 339 26
0 95 -185 79 -211 -4 -7 -6 -35 -5 -63 8 -170 6 -212 -13 -253 -10 -23 -24
-44 -31 -47 -27 -10 -55 7 -67 40 -14 38 -32 44 -48 14 -6 -11 -14 -20 -19
-20 -4 0 -18 34 -30 76 -19 66 -30 85 -79 136 -36 38 -78 69 -119 89 l-63 30
0 164 c0 111 -4 166 -11 171 -7 4 -16 -1 -21 -10 -5 -9 -18 -16 -28 -16 -25 0
-26 -18 -2 -36 11 -9 13 -13 4 -14 -8 0 -10 -5 -5 -12 11 -18 11 -30 0 -51 -5
-11 -5 -23 1 -30 10 -13 9 -98 -2 -116 -5 -8 -13 -8 -27 0 -18 9 -20 20 -19
107 2 102 -5 133 -42 183 -25 33 -33 80 -50 288 -8 94 -8 147 0 180 6 25 8 49
5 54 -4 7 -101 2 -151 -9 -32 -7 -25 -36 11 -45 16 -4 35 -13 43 -20 17 -14
19 -80 3 -96 -8 -8 -4 -26 15 -65 22 -46 26 -65 24 -128 -1 -41 1 -144 6 -227
8 -151 8 -153 -13 -153 -12 0 -85 33 -164 74 -78 41 -173 87 -210 102 -38 14
-75 36 -82 48 -13 20 -18 125 -18 377 0 30 8 60 25 90 18 30 28 66 32 115 8
98 -1 108 -93 111 -82 2 -96 -6 -106 -69 -8 -46 8 -68 51 -68 12 0 32 -12 43
-26 27 -34 29 -134 4 -195 -14 -36 -15 -50 -5 -99 7 -32 10 -65 6 -73 -3 -9
-7 -31 -8 -49 -2 -18 -4 -41 -5 -50 0 -10 -5 -18 -10 -18 -21 0 -135 108 -192
181 -33 44 -70 84 -81 90 -19 10 -20 17 -14 75 12 115 15 125 45 122 26 -3 26
-3 27 72 0 84 4 98 46 189 23 50 29 76 26 113 -1 26 1 49 5 51 10 3 26 77 27
120 0 36 -32 67 -70 67 l-30 0 0 148 c0 170 -18 263 -73 372 -38 77 -129 173
-209 220 l-58 34 8 41 c7 42 6 102 -6 275 -7 100 -8 104 -32 111 -38 11 -68
10 -75 -1z m-264 -731 c11 -5 17 -14 14 -20 -4 -5 9 -9 28 -9 29 0 37 -5 45
-27 5 -16 8 -41 7 -58 -1 -16 3 -36 9 -44 8 -11 8 -15 -1 -18 -17 -6 -17 -48
0 -65 7 -7 15 -17 18 -23 2 -5 7 -9 12 -7 4 1 7 -3 7 -9 0 -6 7 -9 15 -5 17 6
21 -19 5 -29 -5 -3 -10 -2 -10 4 0 17 -25 2 -35 -21 -9 -19 -19 -22 -80 -24
-38 -1 -75 2 -82 8 -7 5 -29 7 -51 3 -35 -6 -40 -4 -46 17 -3 13 -6 52 -6 88
0 36 -4 82 -9 103 -8 33 -6 39 13 49 11 6 41 31 65 55 48 46 52 48 82 32z
m-174 -115 c3 -9 1 -19 -4 -23 -6 -3 -9 -58 -8 -128 1 -126 -6 -145 -37 -108
-7 9 -19 22 -25 30 -15 16 -17 49 -3 75 5 10 12 38 14 63 7 76 47 133 63 91z
m51 -410 c2 -18 -4 -48 -12 -68 -9 -21 -11 -36 -5 -36 6 0 17 -16 25 -35 8
-19 21 -35 29 -35 9 0 18 -7 21 -15 4 -8 11 -15 18 -15 27 -1 37 -16 26 -44
-9 -26 -13 -28 -48 -21 -20 3 -68 7 -107 9 -86 3 -111 11 -118 36 -4 14 5 30
28 52 19 17 32 35 29 40 -3 4 1 6 8 3 20 -8 36 39 31 89 -7 54 9 78 46 74 21
-2 27 -9 29 -34z m228 -39 c6 -23 11 -26 50 -23 58 4 61 -15 4 -23 -54 -7 -50
-8 63 -18 48 -4 90 -10 93 -13 5 -6 6 -26 2 -73 -3 -25 -7 -30 -26 -27 -20 2
-22 -1 -16 -20 4 -13 13 -27 20 -33 23 -17 3 -66 -36 -86 l-34 -18 -70 69
c-101 98 -116 110 -142 110 -29 0 -53 38 -33 51 20 13 37 11 62 -6 13 -8 32
-16 44 -18 12 -1 27 -8 35 -14 7 -6 37 -17 66 -26 40 -11 52 -12 52 -3 0 7 12
18 27 25 41 19 13 36 -61 37 -61 1 -156 30 -156 47 0 4 9 3 19 -3 11 -5 28 -9
38 -9 17 1 17 2 1 6 -19 5 -25 23 -8 23 16 0 -1 29 -21 35 -16 5 -18 10 -8 21
17 21 28 17 35 -11z m-38 -222 c11 -16 26 -66 34 -116 13 -75 13 -89 1 -99 -8
-6 -13 -7 -12 -2 6 34 -2 44 -28 38 -16 -4 -34 -11 -41 -17 -10 -8 -16 -7 -21
1 -9 16 -41 5 -41 -13 0 -8 5 -17 11 -21 20 -12 -11 -22 -52 -17 -21 3 -52 0
-68 -6 -39 -17 -116 4 -104 28 4 9 7 33 6 54 -1 20 3 37 9 37 5 0 6 4 3 10 -3
5 7 12 22 15 15 3 43 13 61 22 27 14 39 15 66 5 45 -17 79 -15 115 6 35 19 36
26 16 62 -27 48 -9 58 23 13z m-778 -213 c11 -6 24 -35 35 -80 17 -69 17 -70
-4 -88 -19 -15 -20 -21 -9 -61 9 -34 9 -61 0 -113 -16 -89 -15 -128 2 -169 18
-42 10 -203 -10 -220 -9 -7 -10 -18 -4 -34 10 -27 5 -33 -55 -63 -88 -44 -86
-46 -84 59 2 85 0 94 -21 111 -26 21 -50 24 -50 4 0 -21 -27 -38 -50 -31 -15
5 -20 15 -20 39 0 22 -8 40 -25 56 -14 13 -27 22 -29 19 -2 -2 1 -44 7 -93 11
-88 11 -89 -13 -108 -21 -17 -33 -19 -75 -13 -51 8 -393 9 -726 3 -123 -2
-191 1 -200 8 -8 6 -36 12 -64 13 -27 1 -63 4 -80 8 -38 7 -85 52 -85 80 0 12
-7 28 -15 37 -8 8 -16 27 -16 43 -2 27 -2 27 -6 3 -3 -14 -10 -31 -15 -37 -7
-9 -2 -21 21 -42 36 -33 39 -60 11 -86 -16 -15 -30 -17 -77 -11 -31 4 -63 12
-70 18 -10 8 -20 8 -36 0 -12 -6 -57 -12 -100 -14 -88 -4 -81 -11 -92 94 -4
33 -1 73 5 95 l12 39 76 1 c43 2 90 -3 106 -9 28 -11 29 -12 23 -75 -6 -62 0
-76 22 -49 9 10 9 20 1 38 -24 51 28 105 77 80 10 -6 40 -6 73 -1 30 4 92 8
137 8 81 1 83 1 98 31 8 16 27 33 41 36 30 8 239 -1 272 -11 29 -9 29 7 -1 39
-13 14 -31 42 -40 63 -46 109 -67 175 -67 210 0 49 -14 65 -46 51 -21 -10 -22
-12 -7 -35 12 -18 14 -35 8 -76 -5 -29 -9 -83 -9 -120 -1 -56 -5 -71 -20 -83
-25 -18 -60 -18 -95 1 -38 19 -43 38 -26 88 19 53 19 71 0 87 -8 7 -15 23 -15
37 0 33 27 83 46 83 10 0 12 5 7 13 -20 32 -13 45 30 51 23 3 63 4 89 1 43 -3
47 -1 59 27 25 61 -7 58 560 58 319 0 527 -4 539 -10z m843 -162 c62 -36 71
-57 35 -95 -28 -30 -42 -29 -34 1 3 14 2 28 -4 31 -6 3 -10 -4 -10 -17 -1 -29
-19 -53 -47 -62 -12 -4 -26 -21 -32 -38 -15 -42 -58 -79 -104 -90 -35 -8 -41
-6 -59 17 -16 20 -23 23 -39 15 -10 -6 -19 -17 -19 -25 0 -10 -9 -14 -25 -13
-20 2 -24 6 -19 23 9 28 20 38 46 40 29 2 36 25 9 32 -12 3 -21 13 -21 24 0
24 9 24 25 2 11 -15 14 -15 36 9 21 21 87 45 112 40 4 -1 23 4 42 12 25 11 33
19 29 31 -4 9 5 26 22 44 36 35 30 33 57 19z m-695 -182 l62 -105 0 -125 c0
-97 -3 -128 -15 -139 -16 -16 -103 -52 -110 -46 -2 2 -6 103 -9 224 -3 121 -8
230 -12 242 -7 24 0 53 13 53 4 0 36 -47 71 -104z m1188 -99 c-9 -84 -215
-496 -261 -521 -11 -6 -46 -28 -78 -49 l-57 -37 -43 21 c-57 29 -92 60 -158
139 -77 91 -92 120 -65 120 8 0 42 23 76 50 35 30 107 73 174 105 145 67 231
123 325 210 l75 69 8 -30 c5 -16 7 -50 4 -77z m-3256 -446 c0 -5 21 -14 48
-20 72 -18 118 -41 132 -67 17 -31 1 -50 -53 -65 -22 -6 -52 -20 -67 -31 -36
-26 -80 -21 -98 12 -15 29 -10 111 10 152 13 27 28 37 28 19z m1095 -22 c17
-6 75 -14 129 -19 84 -8 102 -7 116 5 23 21 67 19 87 -5 14 -15 30 -20 73 -20
l55 0 -71 -43 c-40 -23 -84 -51 -99 -61 -20 -15 -31 -17 -43 -9 -10 5 -53 8
-97 6 -223 -11 -422 -13 -525 -5 -112 9 -116 8 -147 -15 -40 -29 -68 -29 -96
1 -12 13 -32 26 -44 30 -26 8 -73 44 -73 56 0 16 87 69 134 82 40 11 50 10 76
-5 42 -25 272 -28 298 -4 28 25 156 28 227 6z m1575 -84 c7 -8 18 -15 25 -15
7 0 20 -11 29 -25 10 -15 26 -25 41 -25 14 0 29 -8 35 -20 6 -11 20 -24 31
-30 17 -10 28 -4 81 45 33 31 62 54 65 52 2 -2 -39 -89 -90 -193 -52 -104
-110 -225 -130 -269 -19 -44 -45 -102 -57 -130 -56 -129 -148 -386 -225 -630
-31 -99 -60 -191 -65 -205 -14 -40 -96 -333 -131 -470 -17 -69 -36 -129 -41
-135 -10 -11 -4 153 12 325 9 98 13 148 30 380 19 271 32 399 62 610 17 118
34 251 39 295 5 44 13 104 19 134 5 30 10 81 10 113 l0 59 46 27 c25 15 74 48
107 74 67 50 88 56 107 33z m-2623 -267 c51 -7 113 -36 127 -60 12 -20 1 -46
-25 -59 -146 -73 -163 -75 -185 -24 -18 45 -18 70 3 128 14 37 20 45 28 34 5
-7 29 -16 52 -19z m519 -5 c13 -14 41 -17 148 -20 114 -3 132 -2 143 13 19 26
154 28 252 5 49 -12 86 -15 104 -10 36 10 40 -1 24 -71 l-12 -55 -100 -12
c-55 -6 -136 -10 -180 -7 -350 16 -352 16 -397 -7 -28 -14 -43 -18 -46 -10 -2
6 -9 11 -16 11 -7 0 -21 9 -31 20 -10 11 -23 20 -30 20 -6 0 -22 11 -35 25
-23 24 -23 25 -5 45 23 26 113 70 141 70 13 0 30 -8 40 -17z m-2 -489 c17 -16
24 -38 28 -89 2 -21 11 -34 30 -43 28 -13 41 -43 41 -91 -2 -170 -12 -291 -27
-312 -9 -13 -16 -18 -16 -11 0 25 -49 12 -72 -18 -12 -16 -25 -30 -30 -30 -4
0 -8 48 -8 107 0 59 -4 132 -10 162 -5 31 -14 97 -20 146 -5 50 -13 102 -16
117 -5 21 0 32 21 52 32 30 57 33 79 10z m474 -76 c7 -7 12 -9 12 -5 0 10 98
-42 125 -67 31 -29 31 -28 0 -122 -14 -42 -25 -84 -25 -94 0 -10 -6 -20 -12
-23 -8 -3 -13 -21 -12 -48 1 -39 -19 -145 -30 -156 -2 -2 -16 -6 -32 -9 -61
-11 -56 -44 7 -44 33 0 41 -4 51 -26 10 -21 9 -31 -7 -60 -10 -19 -26 -34 -36
-34 -22 0 -69 -21 -69 -30 0 -4 14 -13 30 -20 17 -7 30 -16 30 -21 0 -4 -13
-43 -29 -86 -54 -145 -48 -135 -71 -121 -21 13 -29 68 -10 68 13 0 13 34 -2
81 -9 33 -9 42 5 57 21 23 22 56 2 76 -17 17 -19 71 -5 134 10 44 -1 115 -19
126 -5 3 -17 -18 -27 -47 -21 -56 -44 -68 -55 -27 -9 33 -11 136 -3 194 6 39
10 46 29 46 14 0 26 -9 33 -25 26 -56 37 -25 48 137 5 77 11 101 25 114 11 10
19 23 19 31 0 16 12 17 28 1z m2430 -200 c4 -33 1 -34 -153 -48 -66 -7 -192
-20 -280 -31 -87 -10 -163 -15 -167 -11 -14 14 2 39 30 51 32 12 178 35 322
51 58 6 114 13 125 15 11 1 43 2 70 1 46 -1 50 -3 53 -28z m-2937 -828 c-14
-148 -18 -160 -46 -160 -19 0 -24 7 -29 38 -4 20 -2 69 2 107 5 39 7 75 5 81
-2 6 3 17 11 24 9 7 21 31 27 54 l12 41 15 -35 c13 -30 13 -52 3 -150z"/>
<path d="M2217 2933 c-4 -3 -7 -14 -7 -23 0 -9 -11 -39 -25 -66 -16 -32 -25
-66 -25 -97 0 -49 -17 -94 -44 -116 -27 -22 -19 -28 45 -34 80 -7 93 -2 74 27
-8 13 -13 25 -10 28 8 8 13 288 5 288 -4 0 -10 -3 -13 -7z"/>
<path d="M2364 2887 c4 -25 2 -56 -5 -73 -6 -16 -12 -67 -13 -113 -2 -75 -5
-86 -27 -104 l-24 -20 40 6 c22 4 50 7 63 7 13 0 21 3 18 8 -2 4 -5 66 -6 137
-3 170 -7 195 -32 195 -18 0 -20 -4 -14 -43z"/>
<path d="M2599 2923 c-1 -11 2 -66 5 -89 2 -10 -1 -32 -7 -49 -5 -16 -12 -61
-16 -100 -5 -59 -9 -70 -26 -73 -42 -7 -51 -14 -30 -22 12 -4 38 0 66 11 26
10 56 15 68 12 20 -5 21 -1 21 50 0 33 -8 74 -20 102 -23 55 -25 90 -5 125 21
36 19 40 -20 40 -19 0 -35 -3 -36 -7z"/>
<path d="M6547 4753 c-22 -21 17 -74 42 -58 20 12 117 16 143 6 15 -5 35 -22
44 -37 17 -26 17 -28 -5 -66 -21 -36 -21 -42 -8 -56 9 -8 23 -12 31 -9 13 5
16 24 16 101 0 126 0 126 -144 126 -62 0 -116 -3 -119 -7z"/>
<path d="M245 4651 c-12 -12 -32 -15 -78 -13 -34 1 -86 -1 -116 -4 l-53 -6 6
-56 c8 -66 8 -54 0 -198 l-6 -111 27 -6 c36 -6 144 3 151 14 3 5 -2 19 -11 32
-24 37 -38 132 -24 159 19 38 51 58 94 57 82 0 152 -61 128 -111 -18 -36 -34
-91 -28 -96 3 -3 -2 -13 -11 -23 -10 -12 -12 -19 -4 -24 11 -7 219 -9 226 -2
2 2 5 14 7 27 5 34 -14 66 -60 99 -35 26 -41 36 -56 102 -10 41 -16 87 -15
103 3 26 -1 31 -29 37 -18 3 -39 12 -47 19 -23 18 -82 19 -101 1z"/>
<path d="M5609 4553 c-20 -5 -29 -48 -34 -156 -2 -43 -6 -84 -8 -91 -3 -7 -1
-64 3 -126 8 -106 7 -117 -12 -148 -19 -30 -19 -34 -4 -51 23 -26 20 -89 -10
-167 -14 -37 -23 -77 -20 -88 3 -12 1 -38 -3 -58 -5 -20 -6 -40 -3 -43 10 -10
11 -35 1 -35 -4 0 -6 -6 -3 -13 8 -21 74 -39 88 -24 7 8 11 76 11 207 0 177 2
198 20 224 26 40 27 53 1 69 -20 13 -22 24 -23 98 -1 46 1 88 5 94 4 5 5 62 4
125 l-3 115 30 33 c17 18 31 35 31 38 0 5 -49 3 -71 -3z"/>
<path d="M5782 4550 l-52 -5 43 -18 c44 -18 60 -38 71 -89 4 -16 11 -28 16
-28 5 0 12 12 16 28 12 55 15 60 45 72 23 10 39 10 69 1 56 -17 66 -36 60
-117 -5 -71 2 -112 28 -152 27 -42 37 -9 37 118 0 107 2 121 20 134 51 38 60
39 111 14 l49 -25 -1 -69 c-1 -38 -5 -90 -9 -115 -7 -43 -5 -48 15 -54 19 -6
21 -12 15 -43 -4 -21 -15 -46 -26 -58 -21 -22 -24 -52 -10 -101 7 -25 6 -41
-6 -64 -14 -28 -14 -41 -4 -95 14 -69 9 -179 -14 -284 -8 -36 -17 -82 -20
-103 -10 -64 -52 -62 -87 4 -25 50 -36 405 -13 468 13 38 13 46 -5 92 -11 27
-20 60 -20 72 0 38 -20 50 -41 25 -15 -17 -18 -38 -18 -117 1 -104 -6 -257
-16 -362 -6 -61 -4 -71 19 -108 14 -22 26 -48 26 -56 0 -14 -26 -74 -33 -76
-1 0 -39 -4 -85 -8 -66 -7 -87 -12 -104 -30 -37 -40 -14 -46 205 -50 111 -2
227 -4 257 -5 l55 -1 5 78 c5 81 8 87 63 122 14 8 14 19 6 65 -6 30 -22 72
-36 92 -24 35 -24 40 -14 103 5 37 16 74 23 82 20 25 11 130 -15 164 -29 40
-35 131 -12 198 15 45 15 63 5 141 -6 50 -9 107 -5 129 l6 38 -283 -1 c-156
-1 -307 -3 -336 -6z"/>
<path d="M981 4245 c-1 -55 -6 -158 -11 -229 -8 -126 -8 -130 13 -147 12 -10
25 -18 28 -19 4 0 14 19 23 43 23 61 21 167 -4 214 -13 25 -20 58 -21 98 0 33
-6 78 -14 100 -13 39 -13 37 -14 -60z"/>
<path d="M5825 4130 c-3 -5 -7 -65 -9 -132 -3 -125 -16 -197 -39 -220 -26 -26
-49 -67 -42 -77 3 -6 9 -30 13 -53 7 -40 10 -43 47 -49 48 -9 57 -1 79 67 15
47 15 56 0 130 -28 138 -28 136 2 169 32 34 33 61 3 109 -10 17 -19 39 -19 49
0 18 -25 24 -35 7z"/>
<path d="M5429 3998 c-1 -2 -3 -25 -5 -51 -5 -80 -31 -142 -82 -199 -13 -14
-21 -31 -17 -38 3 -6 9 -27 11 -48 6 -46 12 -52 61 -59 58 -8 64 6 51 107 -14
115 -14 246 0 263 7 8 9 17 5 20 -6 7 -22 9 -24 5z"/>
<path d="M181 3883 c0 -16 11 -48 24 -73 13 -25 29 -55 35 -68 17 -39 43 -23
56 34 6 29 14 57 18 63 22 34 -30 71 -100 71 -31 0 -34 -3 -33 -27z"/>
<path d="M5192 3765 c-23 -19 -30 -35 -35 -76 -4 -33 -2 -58 4 -66 12 -14 106
-18 125 -5 6 4 14 30 17 59 6 50 5 53 -29 82 -19 17 -39 31 -44 31 -4 0 -22
-11 -38 -25z"/>
<path d="M6555 3549 c-5 -7 -23 -9 -49 -6 -40 5 -40 5 -20 -11 11 -10 19 -23
17 -29 -2 -6 10 -19 26 -29 31 -18 39 -38 21 -49 -5 -3 -10 -17 -10 -31 0 -22
4 -24 50 -24 41 0 50 3 51 18 3 44 -3 148 -9 153 -15 14 -70 20 -77 8z"/>
<path d="M5460 3438 c-30 -11 -58 -24 -61 -29 -7 -11 -10 -11 -132 -9 -66 1
-90 5 -94 16 -3 8 -14 14 -24 14 -12 0 -16 -5 -13 -15 4 -8 1 -15 -5 -15 -6 0
-11 8 -11 17 0 14 -5 12 -26 -8 -24 -22 -24 -24 -7 -37 12 -9 31 -11 58 -7 52
8 273 8 287 -1 12 -8 184 -7 210 2 22 7 24 24 2 24 -9 0 -27 9 -41 20 -14 11
-32 20 -40 20 -9 0 -13 6 -9 15 8 21 -25 18 -94 -7z"/>
<path d="M0 3143 c0 -70 4 -93 19 -112 l18 -24 24 21 c20 19 34 22 110 22 92
0 130 -16 144 -60 9 -29 25 -14 25 24 0 17 5 37 12 44 20 20 102 15 131 -8 14
-11 27 -20 30 -20 2 0 14 9 27 20 25 22 39 23 115 11 30 -5 57 -5 68 1 12 6
23 6 32 -2 10 -9 14 4 20 69 4 44 4 85 0 90 -4 8 -130 11 -391 11 l-384 0 0
-87z"/>
<path d="M7405 3214 c-42 -10 -157 -15 -388 -19 -181 -3 -375 -9 -432 -15 -57
-5 -175 -12 -264 -16 -89 -4 -159 -9 -156 -12 12 -12 467 -32 870 -38 464 -7
465 -7 465 -61 0 -20 -5 -23 -34 -23 -40 0 -51 -12 -37 -39 13 -23 -4 -81 -23
-81 -27 0 -44 -35 -45 -93 0 -56 1 -59 32 -75 17 -9 44 -30 59 -46 23 -23 31
-26 43 -16 12 10 15 8 20 -12 6 -28 9 -57 7 -80 -2 -22 -28 -24 -36 -3 -7 20
-18 19 -46 -5 -18 -16 -21 -25 -14 -47 4 -16 8 -96 8 -179 1 -148 1 -151 -26
-192 -23 -35 -28 -52 -28 -106 0 -88 4 -96 51 -96 22 0 56 -7 76 -15 69 -29
64 -80 63 620 -1 377 -5 635 -11 635 -16 0 -18 1 -53 15 -20 8 -37 15 -38 14
-2 0 -30 -7 -63 -15z"/>
<path d="M7037 2958 c-25 -18 -48 -137 -43 -223 2 -38 4 -98 5 -133 1 -54 3
-63 18 -60 16 3 17 18 16 155 -1 176 4 191 79 200 39 5 98 28 98 38 0 2 -26 9
-57 15 -32 6 -67 14 -78 16 -11 3 -28 -1 -38 -8z"/>
<path d="M302 2930 c-21 -28 -23 -43 -25 -150 -1 -69 2 -123 8 -129 16 -16 47
14 56 56 4 21 11 51 15 67 6 24 -4 92 -25 164 -6 23 -7 23 -29 -8z"/>
<path d="M6695 2951 c-11 -5 -29 -18 -39 -30 -19 -21 -19 -21 15 -35 49 -20
169 -14 186 10 22 30 16 51 -18 58 -43 8 -120 7 -144 -3z"/>
<path d="M6698 2323 c-9 -10 -18 -39 -20 -64 -3 -25 -13 -58 -23 -73 l-18 -27
-23 22 c-21 20 -23 20 -32 2 -26 -51 -34 -97 -27 -172 l7 -77 64 -12 c85 -16
187 -15 228 2 31 13 46 35 51 76 1 8 6 27 10 43 5 18 2 40 -9 65 -38 83 -53
95 -86 64 -23 -21 -23 -21 -40 -1 -33 37 -43 75 -31 111 10 28 9 35 -6 45 -22
17 -27 16 -45 -4z"/>
<path d="M6992 2117 c-27 -29 -27 -36 -1 -97 16 -38 27 -49 50 -54 16 -3 39
-2 52 3 12 5 27 8 32 7 15 -2 18 133 4 150 -7 9 -31 14 -63 14 -42 0 -57 -5
-74 -23z"/>
<path d="M10 1998 c-1 -51 -3 -106 -3 -123 -1 -16 2 -57 6 -90 4 -33 3 -77 -2
-97 -8 -33 -6 -38 11 -44 31 -9 43 10 24 37 -22 32 -20 43 14 82 16 19 28 36
26 38 -2 2 -6 51 -10 108 -5 82 -10 109 -25 125 -10 12 -23 29 -28 39 -7 14
-10 -7 -13 -75z"/>
<path d="M312 2043 c-1 -7 -11 -13 -21 -13 -28 0 -33 -13 -37 -95 -1 -39 -4
-76 -5 -81 -4 -21 2 -70 10 -83 7 -11 13 -10 34 5 13 10 32 32 41 47 13 23 14
32 3 50 -6 12 -15 58 -18 102 -3 44 -6 74 -7 68z"/>
<path d="M6579 1482 c-189 -2 -229 -5 -240 -18 -9 -11 -9 -18 0 -27 12 -12 19
-12 461 -4 140 2 283 1 317 -3 35 -5 110 -3 175 4 148 15 228 11 228 -14 0
-14 -12 -18 -72 -23 -40 -2 -127 -2 -193 0 -69 3 -116 2 -112 -3 5 -5 25 -9
45 -9 36 0 38 -2 57 -58 17 -50 23 -57 40 -51 11 3 40 9 64 11 58 7 139 -29
148 -66 8 -31 -6 -1053 -15 -1144 l-7 -67 37 0 38 0 1 83 c0 45 2 179 4 297 2
118 7 412 10 653 l6 438 -28 -6 c-75 -15 -160 -17 -245 -6 -100 13 -355 18
-719 13z"/>
<path d="M6338 1365 c-29 -16 -53 -51 -41 -58 23 -13 117 -28 140 -22 39 10
83 -13 90 -46 5 -25 33 -63 33 -45 0 12 70 -31 89 -55 24 -30 27 -24 39 96 13
130 13 130 -94 131 -49 1 -120 5 -159 8 -54 5 -76 3 -97 -9z"/>
<path d="M7007 1247 c-3 -9 -16 -12 -36 -9 -39 5 -40 -8 -2 -35 40 -30 42 -64
27 -534 -7 -229 -9 -439 -4 -480 9 -89 2 -134 -25 -160 -21 -19 -20 -19 54
-19 l75 0 -2 258 c-4 410 -15 680 -31 762 -8 41 -18 108 -22 149 -6 69 -21
100 -34 68z"/>
<path d="M6415 1142 c6 -37 4 -40 -23 -51 -25 -11 -34 -10 -55 4 -24 15 -25
15 -35 -15 -8 -20 -11 -192 -12 -498 0 -257 -3 -490 -7 -519 -4 -41 -3 -53 8
-54 57 -3 389 -4 410 -1 25 4 25 6 18 50 -4 26 -8 245 -9 487 0 462 -2 485
-45 494 -10 2 -43 -3 -73 -10 -53 -12 -55 -12 -73 12 -10 13 -21 45 -25 72 -7
53 -6 52 -53 62 l-33 7 7 -40z"/>
<path d="M1057 1085 c-11 -8 -25 -11 -33 -8 -20 7 -18 -55 2 -108 14 -33 15
-47 6 -78 -7 -21 -9 -64 -6 -102 5 -47 2 -74 -9 -102 -18 -43 -10 -73 31 -114
17 -17 21 -29 16 -50 -9 -37 -21 -50 -35 -36 -15 15 -91 -27 -94 -52 -9 -73
-13 -192 -7 -200 4 -6 26 -23 49 -38 l43 -27 6 25 c3 14 12 25 19 25 15 0 30
35 21 48 -3 5 0 24 6 43 6 19 13 40 15 48 3 11 7 10 19 -5 15 -18 15 -17 10
12 -7 46 1 67 41 92 l35 24 -6 61 c-4 34 -9 100 -12 147 -5 72 -9 89 -30 111
-13 14 -24 31 -24 38 0 8 -6 11 -15 7 -17 -6 -17 -7 -19 146 0 53 -3 99 -6
101 -3 3 -13 -1 -23 -8z"/>
<path d="M0 460 l0 -240 83 -2 c176 -3 264 13 251 45 -7 20 6 27 71 33 68 7
93 0 75 -20 -24 -30 42 -38 195 -24 11 1 35 -1 53 -5 30 -6 32 -5 32 23 0 34
-4 35 -40 15 -36 -20 -66 -18 -89 6 -16 17 -27 21 -57 16 -47 -8 -94 2 -94 19
0 7 12 25 27 40 26 26 29 27 72 15 51 -14 64 -4 56 39 -3 14 -7 56 -10 94 -2
38 -8 73 -13 78 -9 9 -52 -40 -52 -59 0 -19 -39 -89 -60 -106 -21 -17 -23 -17
-53 1 -68 39 -77 117 -22 182 20 24 34 48 32 54 -7 20 -36 18 -66 -5 -30 -22
-34 -22 -96 -10 -35 7 -103 13 -150 13 -69 1 -88 4 -101 19 -41 46 -44 32 -44
-221z"/>
</g>
</svg>
